<svg width="732" height="304" viewBox="0 0 732 304" fill="none" xmlns="http://www.w3.org/2000/svg">
<g clip-path="url(#clip0_24_863)">
<g clip-path="url(#clip1_24_863)">
<g clip-path="url(#clip2_24_863)">
<path d="M285.554 42.0646C285.315 30.7129 289.284 20.9708 297.464 12.8409C305.725 4.70958 315.509 0.724334 326.817 0.885335C333.796 0.885335 340.171 2.41499 345.945 5.47424C351.799 8.53363 356.412 12.72 359.78 18.0336L352.802 23.5887C346.306 14.2497 337.684 9.58013 326.937 9.58013C317.956 9.58013 310.416 12.6797 304.321 18.879C298.307 25.0781 295.298 32.8069 295.298 42.0661C295.298 51.3254 298.307 59.0534 304.321 65.2533C310.416 71.4524 317.956 74.5519 326.937 74.5519C337.684 74.5519 346.306 69.8825 352.802 60.5435L359.78 66.0986C356.412 71.4122 351.799 75.5986 345.945 78.658C340.171 81.7172 333.796 83.2469 326.817 83.2469C315.509 83.4079 305.725 79.4227 297.464 71.2914C289.284 63.1601 285.315 53.4184 285.554 42.0676V42.0646ZM440.446 81.917H429.5L404.838 48.4647H387.875V81.917H378.491V2.21407H406.402C414.02 2.21407 420.156 4.38777 424.807 8.73536C429.46 13.0023 431.785 18.5172 431.785 25.28C431.785 30.6741 430.301 35.3435 427.334 39.2884C424.367 43.1528 420.275 45.8498 415.063 47.3795L440.446 81.917ZM387.875 10.6676V40.0131H406.04C411.093 40.0131 415.023 38.7249 417.83 36.1487C420.637 33.4918 422.04 29.9092 422.04 25.4006C422.04 20.9727 420.597 17.4303 417.71 14.7736C414.903 12.0363 411.013 10.6677 406.04 10.6677L387.875 10.6676ZM505.983 2.21407H455.096V81.917H507.425V73.4635H464.478V43.5147H496.239V35.0614H464.478V10.6677H505.983V2.21407ZM580.1 81.917L573.363 65.7347H534.386L527.649 81.917H517.786L552.191 0.885715H555.68L590.086 81.917H580.1ZM569.755 57.2816L553.876 18.0344L537.996 57.2816H569.755ZM616.744 10.6676V81.917H626.126V10.6676H654.157V2.21407H588.833V10.6676H616.744ZM688.548 110.1H679.164V2.21407H730.051V10.6676H688.548V110.1ZM152.917 112.321V192.024H162.301V112.321H152.917ZM239.713 112.321H249.097V193.352H245.729L195.202 132.246V192.024H185.819V110.993H189.187L239.712 172.219L239.713 112.321ZM336.037 112.321H326.655V172.219L276.128 110.993H272.76V192.024H282.144V132.246L332.671 193.352H336.037V112.321ZM354.53 152.173C354.29 140.822 358.26 131.08 366.439 122.95C374.621 114.818 384.364 110.833 395.672 110.994C406.901 110.833 416.644 114.818 424.906 122.95C433.165 131.081 437.175 140.823 436.935 152.173C437.175 163.525 433.165 173.267 424.906 181.397C416.644 189.529 406.901 193.514 395.672 193.352C384.444 193.594 374.7 189.609 366.439 181.397C358.26 173.185 354.29 163.444 354.53 152.173ZM427.191 152.053C427.351 143.036 424.344 135.347 418.169 128.987C411.993 122.627 404.535 119.528 395.792 119.689C386.81 119.689 379.312 122.788 373.296 128.987C367.282 135.106 364.273 142.795 364.273 152.053C364.273 161.311 367.282 169.08 373.296 175.36C379.312 181.559 386.81 184.659 395.792 184.659C404.535 184.82 411.993 181.72 418.169 175.36C424.344 168.919 427.351 161.15 427.191 152.053ZM518.189 112.322H507.842L482.099 174.876L456.234 112.322H445.889L480.295 193.354H483.783L518.189 112.322ZM580.108 192.025L573.371 175.843H534.394L527.657 192.025H517.793L552.199 110.994H555.687L590.093 192.025H580.108ZM569.763 167.39L553.883 128.143L538.004 167.39H569.763ZM616.752 120.776V192.025H626.134V120.776H654.164V112.322H588.841V120.776H616.752ZM0.857178 302.134V222.429H28.7659C36.3849 222.429 42.52 224.602 47.1717 228.951C51.8232 233.217 54.149 238.732 54.149 245.494C54.149 252.338 51.8232 257.933 47.1717 262.281C42.52 266.628 36.3849 268.803 28.7659 268.803H10.2398V302.134H0.857178ZM10.2405 260.35H28.5261C33.4985 260.35 37.3882 259.021 40.195 256.365C43.0021 253.706 44.4056 250.124 44.4056 245.616C44.4056 241.187 43.0021 237.646 40.195 234.989C37.3882 232.251 33.4985 230.882 28.5261 230.882H10.2405V260.35ZM122.595 302.134H133.542L108.159 267.595C113.372 266.065 117.462 263.368 120.429 259.503C123.396 255.56 124.88 250.889 124.88 245.494C124.88 238.732 122.554 233.217 117.903 228.951C113.251 224.602 107.116 222.429 99.497 222.429H71.5883V302.134H80.9716V268.681H97.934L122.595 302.134ZM80.9705 260.228V230.882H99.1357C104.108 230.882 107.998 232.251 110.805 234.989C113.692 237.646 115.136 241.187 115.136 245.616C115.136 250.124 113.732 253.706 110.925 256.365C108.118 258.939 104.188 260.228 99.1357 260.228H80.9705ZM141.256 262.281C141.016 250.929 144.986 241.187 153.166 233.056C161.346 224.926 171.09 220.941 182.399 221.1C193.627 220.941 203.371 224.926 211.632 233.056C219.892 241.187 223.903 250.929 223.662 262.281C223.903 273.633 219.892 283.375 211.632 291.505C203.371 299.637 193.627 303.622 182.399 303.462C171.171 303.702 161.427 299.717 153.166 291.505C144.986 283.293 141.016 273.553 141.256 262.281ZM213.918 262.159C214.078 253.143 211.071 245.454 204.895 239.094C198.72 232.734 191.262 229.636 182.519 229.796C173.537 229.796 166.038 232.896 160.023 239.094C154.008 245.212 151 252.901 151 262.159C151 271.418 154.008 279.188 160.023 285.468C166.037 291.667 173.536 294.767 182.519 294.767C191.261 294.927 198.719 291.828 204.895 285.468C211.071 279.026 214.078 271.258 213.918 262.159ZM265.762 222.429H242.182V302.134H265.762C278.834 302.134 289.301 298.388 297.159 290.902C305.018 283.415 308.948 273.835 308.948 262.159C308.948 250.406 305.018 240.866 297.159 233.539C289.381 226.132 278.914 222.429 265.762 222.429ZM265.642 293.68H251.566V230.882H265.642C275.987 230.882 284.166 233.781 290.182 239.577C296.198 245.294 299.204 252.821 299.204 262.159C299.204 271.418 296.158 278.986 290.062 284.863C284.046 290.74 275.907 293.68 265.642 293.68ZM326.398 270.493V222.429H335.78V271.096C335.78 278.665 337.786 284.502 341.795 288.607C345.885 292.713 351.299 294.767 358.036 294.767C364.693 294.767 370.026 292.713 374.036 288.607C378.045 284.502 380.051 278.665 380.051 271.096V222.429H389.433V270.493C389.433 280.718 386.506 288.768 380.653 294.645C374.879 300.522 367.339 303.462 358.036 303.462C348.572 303.462 340.914 300.522 335.059 294.645C329.285 288.768 326.398 280.718 326.398 270.493ZM418.927 233.056C410.746 241.187 406.776 250.929 407.018 262.281C406.776 273.633 410.746 283.375 418.927 291.505C427.187 299.637 436.972 303.622 448.28 303.462C455.257 303.462 461.632 301.932 467.406 298.872C473.262 295.814 477.873 291.627 481.242 286.313L474.265 280.758C467.768 290.097 459.147 294.767 448.4 294.767C439.418 294.767 431.88 291.667 425.784 285.468C419.768 279.268 416.762 271.54 416.762 262.281C416.762 253.023 419.768 245.294 425.784 239.094C431.88 232.896 439.418 229.796 448.4 229.796C459.147 229.796 467.768 234.466 474.265 243.804L481.242 238.249C477.873 232.936 473.262 228.749 467.406 225.691C461.632 222.631 455.257 221.1 448.28 221.1C436.972 220.941 427.187 224.926 418.927 233.056ZM519.203 302.134V230.882H491.292V222.429H556.615V230.882H528.585V302.134H519.203ZM581.007 222.429H571.623V302.134H581.007V222.429ZM612.103 293.68H660.345V302.134H597.427V299.355L645.307 230.882H602.599V222.429H660.223V225.207L612.103 293.68ZM679.311 110.101V303.473H731.642V295.02H688.695V154.963H720.453V146.509H688.695V118.564L688.624 115.9V110.111H679.311V110.101Z" fill="#FFFFFA"/>
</g>
</g>
</g>
<defs>
<clipPath id="clip0_24_863">
<rect width="730.83" height="302.59" fill="white" transform="translate(0.830078 0.880005)"/>
</clipPath>
<clipPath id="clip1_24_863">
<rect width="730.83" height="302.59" fill="white" transform="translate(0.830078 0.880005)"/>
</clipPath>
<clipPath id="clip2_24_863">
<rect width="730.783" height="302.59" fill="white" transform="translate(0.853271 0.880005)"/>
</clipPath>
</defs>
</svg>
