<svg width="1244" height="629" viewBox="0 0 1244 629" fill="none" xmlns="http://www.w3.org/2000/svg">
<path d="M1189.42 5.35099L370 7.25879L508.632 599.683L1240.02 221.625L1166.21 239.749L1147.03 157.803L1144.35 158.462L1134.9 118.116L1137.59 117.456L1115.6 23.4795L1189.42 5.35619L1189.42 5.35099Z" fill="url(#paint0_radial_28_62)"/>
<path d="M354.555 166.065C354.315 154.713 358.285 144.971 366.464 136.841C374.725 128.71 384.509 124.724 395.817 124.885C402.796 124.885 409.171 126.415 414.945 129.474C420.799 132.534 425.412 136.72 428.781 142.034L421.802 147.589C415.307 138.25 406.684 133.58 395.937 133.58C386.957 133.58 379.417 136.68 373.321 142.879C367.307 149.078 364.298 156.807 364.298 166.066C364.298 175.325 367.307 183.053 373.321 189.253C379.417 195.452 386.957 198.552 395.937 198.552C406.684 198.552 415.307 193.882 421.802 184.543L428.781 190.099C425.412 195.412 420.799 199.599 414.945 202.658C409.171 205.717 402.796 207.247 395.817 207.247C384.509 207.408 374.725 203.423 366.464 195.291C358.285 187.16 354.315 177.418 354.555 166.068V166.065ZM509.446 205.917H498.5L473.838 172.465H456.876V205.917H447.492V126.214H475.402C483.02 126.214 489.156 128.388 493.807 132.735C498.46 137.002 500.786 142.517 500.786 149.28C500.786 154.674 499.301 159.343 496.334 163.288C493.367 167.153 489.276 169.85 484.063 171.379L509.446 205.917ZM456.876 134.668V164.013H475.041C480.093 164.013 484.023 162.725 486.83 160.149C489.637 157.492 491.04 153.909 491.04 149.401C491.04 144.973 489.597 141.43 486.71 138.774C483.903 136.036 480.013 134.668 475.041 134.668L456.876 134.668ZM574.983 126.214H524.096V205.917H576.425V197.464H533.479V167.515H565.239V159.061H533.479V134.668H574.983V126.214ZM649.1 205.917L642.363 189.735H603.386L596.65 205.917H586.786L621.192 124.886H624.68L659.086 205.917H649.1ZM638.755 181.282L622.876 142.034L606.997 181.282H638.755ZM685.744 134.668V205.917H695.126V134.668H723.157V126.214H657.834V134.668H685.744ZM757.549 234.1H748.165V126.214H799.051V134.668H757.549V234.1ZM221.917 236.321V316.024H231.301V236.321H221.917ZM308.713 236.321H318.097V317.352H314.729L264.202 256.246V316.024H254.819V234.993H258.188L308.712 296.219L308.713 236.321ZM405.038 236.321H395.656V296.219L345.129 234.993H341.76V316.024H351.144V256.246L401.671 317.352H405.038V236.321ZM423.53 276.173C423.29 264.822 427.26 255.08 435.439 246.95C443.621 238.818 453.365 234.833 464.673 234.994C475.901 234.833 485.645 238.818 493.906 246.95C502.165 255.081 506.175 264.823 505.935 276.173C506.175 287.525 502.165 297.267 493.906 305.397C485.645 313.528 475.901 317.514 464.673 317.352C453.444 317.594 443.701 313.609 435.439 305.397C427.26 297.185 423.29 287.444 423.53 276.173ZM496.191 276.053C496.351 267.036 493.344 259.347 487.169 252.987C480.993 246.627 473.535 243.528 464.793 243.689C455.81 243.689 448.312 246.788 442.296 252.987C436.283 259.106 433.274 266.795 433.274 276.053C433.274 285.311 436.283 293.08 442.296 299.36C448.312 305.559 455.81 308.658 464.793 308.658C473.535 308.819 480.993 305.72 487.169 299.36C493.344 292.919 496.351 285.15 496.191 276.053ZM587.189 236.322H576.842L551.099 298.876L525.234 236.322H514.889L549.295 317.353H552.783L587.189 236.322ZM649.108 316.025L642.371 299.843H603.394L596.657 316.025H586.793L621.199 234.994H624.688L659.093 316.025H649.108ZM638.763 291.39L622.883 252.142L607.004 291.39H638.763ZM685.752 244.776V316.025H695.134V244.776H723.164V236.322H657.841V244.776H685.752ZM69.8574 426.134V346.429H97.7661C105.385 346.429 111.52 348.602 116.172 352.951C120.823 357.217 123.149 362.732 123.149 369.494C123.149 376.338 120.823 381.933 116.172 386.281C111.52 390.628 105.385 392.803 97.7661 392.803H79.24V426.134H69.8574ZM79.2408 384.35H97.5263C102.499 384.35 106.388 383.021 109.195 380.365C112.002 377.706 113.406 374.124 113.406 369.616C113.406 365.187 112.002 361.646 109.195 358.989C106.388 356.251 102.499 354.882 97.5263 354.882H79.2408V384.35ZM191.595 426.134H202.542L177.159 391.595C182.372 390.065 186.462 387.368 189.429 383.503C192.397 379.559 193.88 374.889 193.88 369.494C193.88 362.732 191.555 357.217 186.903 352.951C182.252 348.602 176.116 346.429 168.497 346.429H140.589V426.134H149.972V392.681H166.934L191.595 426.134ZM149.971 384.228V354.882H168.136C173.108 354.882 176.998 356.251 179.805 358.989C182.692 361.646 184.136 365.187 184.136 369.616C184.136 374.124 182.732 377.706 179.925 380.365C177.118 382.939 173.188 384.228 168.136 384.228H149.971ZM210.257 386.281C210.016 374.929 213.986 365.187 222.166 357.056C230.346 348.926 240.091 344.941 251.399 345.1C262.627 344.941 272.371 348.926 280.633 357.056C288.892 365.187 292.904 374.929 292.662 386.281C292.904 397.633 288.892 407.375 280.633 415.505C272.371 423.637 262.628 427.622 251.399 427.462C240.171 427.702 230.427 423.717 222.166 415.505C213.986 407.293 210.016 397.553 210.257 386.281ZM282.918 386.159C283.078 377.143 280.071 369.454 273.896 363.094C267.72 356.734 260.262 353.636 251.519 353.796C242.537 353.796 235.038 356.896 229.023 363.094C223.008 369.212 220 376.901 220 386.159C220 395.418 223.008 403.188 229.023 409.468C235.038 415.667 242.536 418.767 251.519 418.767C260.261 418.927 267.719 415.828 273.896 409.468C280.071 403.026 283.078 395.258 282.918 386.159ZM334.762 346.429H311.183V426.134H334.762C347.834 426.134 358.301 422.388 366.159 414.902C374.019 407.415 377.948 397.835 377.948 386.159C377.948 374.406 374.019 364.866 366.159 357.539C358.381 350.132 347.914 346.429 334.762 346.429ZM334.642 417.68H320.567V354.882H334.642C344.987 354.882 353.167 357.781 359.182 363.577C365.198 369.294 368.205 376.821 368.205 386.159C368.205 395.418 365.158 402.986 359.062 408.863C353.047 414.74 344.907 417.68 334.642 417.68ZM395.398 394.493V346.429H404.78V395.096C404.78 402.665 406.786 408.502 410.796 412.607C414.885 416.713 420.3 418.767 427.037 418.767C433.694 418.767 439.026 416.713 443.036 412.607C447.046 408.502 449.051 402.665 449.051 395.096V346.429H458.434V394.493C458.434 404.718 455.507 412.768 449.653 418.645C443.879 424.522 436.339 427.462 427.037 427.462C417.573 427.462 409.915 424.522 404.059 418.645C398.285 412.768 395.398 404.718 395.398 394.493ZM487.928 357.056C479.746 365.187 475.776 374.929 476.018 386.281C475.776 397.633 479.746 407.375 487.928 415.505C496.187 423.637 505.973 427.622 517.281 427.462C524.257 427.462 530.633 425.932 536.407 422.872C542.262 419.813 546.874 415.627 550.242 410.313L543.265 404.758C536.768 414.097 528.147 418.767 517.401 418.767C508.418 418.767 500.88 415.667 494.784 409.468C488.769 403.268 485.762 395.54 485.762 386.281C485.762 377.023 488.769 369.294 494.784 363.094C500.88 356.896 508.418 353.796 517.401 353.796C528.147 353.796 536.768 358.466 543.265 367.804L550.242 362.249C546.874 356.936 542.262 352.749 536.407 349.691C530.633 346.63 524.257 345.1 517.281 345.1C505.973 344.941 496.187 348.926 487.928 357.056ZM588.203 426.134V354.882H560.292V346.429H625.616V354.882H597.585V426.134H588.203ZM650.007 346.429H640.623V426.134H650.007V346.429ZM681.104 417.68H729.345V426.134H666.427V423.355L714.307 354.882H671.6V346.429H729.223V349.207L681.104 417.68ZM748.311 234.101V427.473H800.642V419.02H757.695V278.963H789.454V270.509H757.695V242.564L757.625 239.9V234.111H748.311V234.101Z" fill="#FFFFFA"/>
<g opacity="0.33">
<rect y="551" width="39" height="39" fill="#D9D9D9"/>
<rect x="40" y="511" width="39" height="39" fill="#D9D9D9"/>
<rect x="88" y="590" width="39" height="39" fill="#D9D9D9"/>
<rect x="136" y="511" width="39" height="39" fill="#D9D9D9"/>
<rect x="184" y="511" width="39" height="39" fill="#D9D9D9"/>
<rect x="232" y="590" width="39" height="39" fill="#D9D9D9"/>
<rect x="271" y="551" width="39" height="39" fill="#D9D9D9"/>
<rect x="328" y="511" width="39" height="39" fill="#D9D9D9"/>
<rect x="376" y="511" width="39" height="39" fill="#D9D9D9"/>
<rect x="424" y="551" width="39" height="39" fill="#D9D9D9"/>
<rect x="472" y="511" width="39" height="39" fill="#D9D9D9"/>
<rect x="520" y="511" width="39" height="39" fill="#D9D9D9"/>
<rect x="568" y="590" width="39" height="39" fill="#D9D9D9"/>
<rect x="616" y="511" width="39" height="39" fill="#D9D9D9"/>
<rect x="664" y="511" width="39" height="39" fill="#D9D9D9"/>
<rect x="760" y="557" width="39" height="39" fill="#D9D9D9"/>
<rect x="760" y="511" width="39" height="39" fill="#D9D9D9"/>
<rect x="805" y="557" width="39" height="39" fill="#D9D9D9"/>
<rect x="856" y="511" width="39" height="39" fill="#D9D9D9"/>
<rect x="904" y="511" width="39" height="39" fill="#D9D9D9"/>
<rect x="952" y="567" width="39" height="39" fill="#D9D9D9"/>
<rect x="1000" y="567" width="39" height="39" fill="#D9D9D9"/>
<rect x="1048" y="511" width="39" height="39" fill="#D9D9D9"/>
<rect x="1048" y="567" width="39" height="39" fill="#D9D9D9"/>
<rect x="1144" y="511" width="39" height="39" fill="#D9D9D9"/>
<rect x="1192" y="557" width="39" height="39" fill="#D9D9D9"/>
</g>
<defs>
<radialGradient id="paint0_radial_28_62" cx="0" cy="0" r="1" gradientUnits="userSpaceOnUse" gradientTransform="translate(1214.44 112.83) rotate(154.987) scale(777.192 428.831)">
<stop stop-color="#FFFFFA"/>
<stop offset="0.26" stop-color="#FDE14D"/>
<stop offset="0.5" stop-color="#E9792F"/>
<stop offset="0.77" stop-color="#7C1F1A"/>
<stop offset="1" stop-color="#020412"/>
</radialGradient>
</defs>
</svg>
